# xmcd
#
# Track frame offsets:
# 150
# 21123
# 39910
# 58157
# 75000
# 99131
# 117513
# 135409
# 153440
# 170715
# 187207
# 202053
# 218734
# 233553
# 249937
# 264027
# 279818
# 294124
# 308619
#
# Disc length: 4302 seconds
#
#
# Revision: 0
# Processed by: cddbd v1.5.2PL0 Copyright (c) Steve Scherf et al.
# Submitted via: FreeRIP 2.95 
#
DISCID=ee10cc13
DTITLE=João Paulo e Daniel - Especial 2 - Especial 2
DYEAR=2006
DGENRE=sertanejo
TTITLE0=ESTOU APAIXONADO
TTITLE1=MINHA ESTRELA PERDIDA
TTITLE2=COM QUAL CARICIA
TTITLE3=PORQUE FUI TE AMAR ASSIM
TTITLE4=TE AMO CADA VEZ MAIS
TTITLE5=ELA TEM O DOM DE ME FAZER CHORAR
TTITLE6=CHOVENDO EM MEU OLHAR
TTITLE7=FIM DE SEMANA
TTITLE8=TO FICANDO LOUCO
TTITLE9=AS COISAS SAO COMO SAO
TTITLE10=NO MESMO LUGAR
TTITLE11=NO MESMO LUGAR
TTITLE12=LOUCO DE DESEJO
TTITLE13=VAZIO
TTITLE14=PEDE PRA VOLTAR
TTITLE15=A LOIRA DO CARRO BRANCO
TTITLE16=POEIRA DA ESTRADA
TTITLE17=FOGO DE AMOR
TTITLE18=AMARGURADO
EXTD=emerson@betim.mg.gov.br
EXTT0=
EXTT1=
EXTT2=
EXTT3=
EXTT4=
EXTT5=
EXTT6=
EXTT7=
EXTT8=
EXTT9=
EXTT10=
EXTT11=
EXTT12=
EXTT13=
EXTT14=
EXTT15=
EXTT16=
EXTT17=
EXTT18=
PLAYORDER=
